<mxfile host="65bd71144e">
    <diagram id="uEXJJrO0DhDbDHVcbahO" name="ページ1">
        <mxGraphModel dx="588" dy="475" grid="1" gridSize="10" guides="1" tooltips="1" connect="1" arrows="1" fold="1" page="1" pageScale="1" pageWidth="1169" pageHeight="827" math="0" shadow="0">
            <root>
                <mxCell id="0"/>
                <mxCell id="1" parent="0"/>
                <mxCell id="73" value="&lt;font color=&quot;#000000&quot;&gt;アプリケーションコア層&lt;br&gt;&lt;/font&gt;" style="rounded=0;whiteSpace=wrap;html=1;fontFamily=Noto Sans JP;fontSize=18;strokeWidth=1;fontSource=https%3A%2F%2Ffonts.googleapis.com%2Fcss%3Ffamily%3DNoto%2BSans%2BJP;fillColor=none;strokeColor=#666666;spacingTop=8;verticalAlign=top;" parent="1" vertex="1">
                    <mxGeometry x="40" y="240" width="520" height="220" as="geometry"/>
                </mxCell>
                <mxCell id="78" value="&lt;div&gt;&lt;font color=&quot;#000000&quot;&gt;アプリケーションサービス&lt;/font&gt;&lt;/div&gt;" style="rounded=0;whiteSpace=wrap;html=1;fontFamily=Noto Sans JP;fontSize=18;fillColor=#ffff88;strokeColor=#666666;strokeWidth=1;spacingLeft=0;fontSource=https%3A%2F%2Ffonts.googleapis.com%2Fcss%3Ffamily%3DNoto%2BSans%2BJP;align=center;verticalAlign=top;spacingTop=8;" parent="1" vertex="1">
                    <mxGeometry x="80" y="280" width="230" height="160" as="geometry"/>
                </mxCell>
                <mxCell id="74" value="&lt;font color=&quot;#000000&quot;&gt;インフラストラクチャ層&lt;br&gt;&lt;/font&gt;" style="rounded=0;whiteSpace=wrap;html=1;fontFamily=Noto Sans JP;fontSize=18;strokeWidth=1;fontSource=https%3A%2F%2Ffonts.googleapis.com%2Fcss%3Ffamily%3DNoto%2BSans%2BJP;fillColor=none;strokeColor=#666666;spacingTop=8;verticalAlign=top;" parent="1" vertex="1">
                    <mxGeometry x="320" y="40" width="240" height="180" as="geometry"/>
                </mxCell>
                <mxCell id="55" value="&lt;font color=&quot;#000000&quot;&gt;プレゼンテーション層&lt;br&gt;&lt;/font&gt;" style="rounded=0;whiteSpace=wrap;html=1;fontFamily=Noto Sans JP;fontSize=18;strokeWidth=1;fontSource=https%3A%2F%2Ffonts.googleapis.com%2Fcss%3Ffamily%3DNoto%2BSans%2BJP;fillColor=none;strokeColor=#666666;spacingTop=8;verticalAlign=top;" parent="1" vertex="1">
                    <mxGeometry x="40" y="40" width="240" height="180" as="geometry"/>
                </mxCell>
                <mxCell id="77" value="&lt;div&gt;&lt;font color=&quot;#000000&quot;&gt;ドメインサービス&lt;/font&gt;&lt;/div&gt;" style="rounded=0;whiteSpace=wrap;html=1;fontFamily=Noto Sans JP;fontSize=18;fillColor=#ffcc99;strokeColor=#666666;strokeWidth=1;spacingLeft=0;fontSource=https%3A%2F%2Ffonts.googleapis.com%2Fcss%3Ffamily%3DNoto%2BSans%2BJP;align=center;verticalAlign=top;spacingTop=4;" parent="1" vertex="1">
                    <mxGeometry x="100" y="320" width="190" height="120" as="geometry"/>
                </mxCell>
                <mxCell id="79" value="&lt;font color=&quot;#000000&quot;&gt;リポジトリ&lt;br&gt;&lt;br&gt;&lt;br&gt;&lt;br&gt;&lt;/font&gt;" style="rounded=0;whiteSpace=wrap;html=1;fontFamily=Noto Sans JP;fontSize=18;fillColor=#cce5ff;strokeColor=#666666;strokeWidth=1;spacingLeft=0;fontSource=https%3A%2F%2Ffonts.googleapis.com%2Fcss%3Ffamily%3DNoto%2BSans%2BJP;" parent="1" vertex="1">
                    <mxGeometry x="360" y="90" width="160" height="110" as="geometry"/>
                </mxCell>
                <mxCell id="80" value="&lt;font color=&quot;#000000&quot;&gt;リポジトリ&lt;br&gt;インターフェース&lt;br&gt;&lt;/font&gt;" style="rounded=0;whiteSpace=wrap;html=1;fontFamily=Noto Sans JP;fontSize=18;fillColor=#cce5ff;strokeColor=#36393d;strokeWidth=1;spacingLeft=0;fontSource=https%3A%2F%2Ffonts.googleapis.com%2Fcss%3Ffamily%3DNoto%2BSans%2BJP;verticalAlign=top;spacingTop=8;" parent="1" vertex="1">
                    <mxGeometry x="360" y="280" width="160" height="160" as="geometry"/>
                </mxCell>
                <mxCell id="82" value="&lt;font color=&quot;#000000&quot;&gt;コントローラー&lt;/font&gt;" style="rounded=0;whiteSpace=wrap;html=1;fontFamily=Noto Sans JP;fontSize=18;fillColor=#cce5ff;strokeColor=#666666;strokeWidth=1;spacingLeft=0;fontSource=https%3A%2F%2Ffonts.googleapis.com%2Fcss%3Ffamily%3DNoto%2BSans%2BJP;" parent="1" vertex="1">
                    <mxGeometry x="80" y="160" width="160" height="40" as="geometry"/>
                </mxCell>
                <mxCell id="83" value="&lt;font color=&quot;#000000&quot;&gt;Filter&lt;/font&gt;" style="rounded=0;whiteSpace=wrap;html=1;fontFamily=Noto Sans JP;fontSize=18;fillColor=#cce5ff;strokeColor=#666666;strokeWidth=1;spacingLeft=0;fontSource=https%3A%2F%2Ffonts.googleapis.com%2Fcss%3Ffamily%3DNoto%2BSans%2BJP;" parent="1" vertex="1">
                    <mxGeometry x="80" y="90" width="160" height="40" as="geometry"/>
                </mxCell>
                <mxCell id="84" value="DbContext" style="rounded=0;whiteSpace=wrap;html=1;fontFamily=Noto Sans JP;fontSize=18;fillColor=#cdeb8b;strokeColor=#666666;strokeWidth=1;spacingLeft=0;fontSource=https%3A%2F%2Ffonts.googleapis.com%2Fcss%3Ffamily%3DNoto%2BSans%2BJP;" parent="1" vertex="1">
                    <mxGeometry x="377.02" y="150" width="125.96" height="40" as="geometry"/>
                </mxCell>
                <mxCell id="91" style="edgeStyle=none;sketch=0;html=1;exitX=0.5;exitY=1;exitDx=0;exitDy=0;shadow=0;fontColor=#000000;endArrow=classic;endFill=1;strokeColor=#000000;strokeWidth=4;" parent="1" source="82" edge="1">
                    <mxGeometry relative="1" as="geometry">
                        <mxPoint x="655.5799999999999" y="575" as="sourcePoint"/>
                        <mxPoint x="160" y="300" as="targetPoint"/>
                    </mxGeometry>
                </mxCell>
                <mxCell id="92" style="edgeStyle=none;sketch=0;html=1;exitX=0.5;exitY=1;exitDx=0;exitDy=0;shadow=0;fontColor=#000000;endArrow=block;endFill=1;strokeColor=#000000;strokeWidth=4;dashed=1;" parent="1" source="79" target="80" edge="1">
                    <mxGeometry relative="1" as="geometry">
                        <mxPoint x="455" y="330" as="sourcePoint"/>
                        <mxPoint x="489.05726000000004" y="485.94000000000005" as="targetPoint"/>
                    </mxGeometry>
                </mxCell>
                <mxCell id="94" value="依存関係" style="text;html=1;strokeColor=none;fillColor=none;align=left;verticalAlign=middle;whiteSpace=wrap;rounded=0;fontFamily=Noto Sans JP;fontSource=https%3A%2F%2Ffonts.googleapis.com%2Fcss%3Ffamily%3DNoto%2BSans%2BJP;fontSize=18;fontColor=#000000;" parent="1" vertex="1">
                    <mxGeometry x="180" y="470" width="90" height="40" as="geometry"/>
                </mxCell>
                <mxCell id="95" style="edgeStyle=none;sketch=0;html=1;shadow=0;fontColor=#000000;endArrow=classic;endFill=1;strokeColor=#000000;strokeWidth=4;" parent="1" edge="1">
                    <mxGeometry relative="1" as="geometry">
                        <mxPoint x="120" y="490" as="sourcePoint"/>
                        <mxPoint x="170" y="489.7800887623514" as="targetPoint"/>
                    </mxGeometry>
                </mxCell>
                <mxCell id="96" value="実装関係" style="text;html=1;strokeColor=none;fillColor=none;align=left;verticalAlign=middle;whiteSpace=wrap;rounded=0;fontFamily=Noto Sans JP;fontSource=https%3A%2F%2Ffonts.googleapis.com%2Fcss%3Ffamily%3DNoto%2BSans%2BJP;fontSize=18;fontColor=#000000;" parent="1" vertex="1">
                    <mxGeometry x="368.41999999999996" y="470" width="90" height="40" as="geometry"/>
                </mxCell>
                <mxCell id="98" style="edgeStyle=none;sketch=0;html=1;shadow=0;fontColor=#000000;endArrow=block;endFill=1;strokeColor=#000000;strokeWidth=4;dashed=1;" parent="1" edge="1">
                    <mxGeometry relative="1" as="geometry">
                        <mxPoint x="310" y="491" as="sourcePoint"/>
                        <mxPoint x="360" y="491" as="targetPoint"/>
                    </mxGeometry>
                </mxCell>
                <mxCell id="90" style="edgeStyle=none;sketch=0;html=1;shadow=0;fontColor=#000000;endArrow=classic;endFill=1;strokeColor=#000000;strokeWidth=4;exitX=1;exitY=0.25;exitDx=0;exitDy=0;entryX=-0.001;entryY=0.439;entryDx=0;entryDy=0;entryPerimeter=0;" parent="1" source="77" target="80" edge="1">
                    <mxGeometry relative="1" as="geometry">
                        <mxPoint x="340" y="373" as="sourcePoint"/>
                        <mxPoint x="360" y="349" as="targetPoint"/>
                    </mxGeometry>
                </mxCell>
                <mxCell id="93" style="edgeStyle=none;sketch=0;html=1;exitX=1;exitY=0.25;exitDx=0;exitDy=0;shadow=0;fontColor=#000000;endArrow=classic;endFill=1;strokeColor=#000000;strokeWidth=4;entryX=0;entryY=0.25;entryDx=0;entryDy=0;" parent="1" source="78" target="80" edge="1">
                    <mxGeometry relative="1" as="geometry">
                        <mxPoint x="641.76" y="575" as="sourcePoint"/>
                        <mxPoint x="686.1799999999998" y="573.1401775247027" as="targetPoint"/>
                    </mxGeometry>
                </mxCell>
                <mxCell id="100" value="値オブジェクト" style="rounded=0;whiteSpace=wrap;html=1;fontFamily=Noto Sans JP;fontSize=18;fillColor=#cdeb8b;strokeColor=#36393D;strokeWidth=1;spacingLeft=0;fontSource=https%3A%2F%2Ffonts.googleapis.com%2Fcss%3Ffamily%3DNoto%2BSans%2BJP;" parent="1" vertex="1">
                    <mxGeometry x="230" y="398" width="190" height="36" as="geometry"/>
                </mxCell>
                <mxCell id="101" value="エンティティ" style="rounded=0;whiteSpace=wrap;html=1;fontFamily=Noto Sans JP;fontSize=18;fillColor=#cdeb8b;strokeColor=#36393D;strokeWidth=1;spacingLeft=0;fontSource=https%3A%2F%2Ffonts.googleapis.com%2Fcss%3Ffamily%3DNoto%2BSans%2BJP;" parent="1" vertex="1">
                    <mxGeometry x="230" y="361" width="190" height="33" as="geometry"/>
                </mxCell>
            </root>
        </mxGraphModel>
    </diagram>
</mxfile>